<?xml version="1.0" standalone="no"?><!DOCTYPE svg PUBLIC "-//W3C//DTD SVG 1.1//EN" "http://www.w3.org/Graphics/SVG/1.1/DTD/svg11.dtd"><svg t="1553051079621" class="icon" style="" viewBox="0 0 1024 1024" version="1.1" xmlns="http://www.w3.org/2000/svg" p-id="7111" xmlns:xlink="http://www.w3.org/1999/xlink" width="200" height="200"><defs><style type="text/css"></style></defs><path d="M952.32 699.733c23.893-58.026 37.547-119.466 37.547-187.733s-13.654-129.707-37.547-187.733V136.533H805.547C723.627 71.68 621.227 34.133 512 34.133s-215.04 37.547-293.547 102.4H85.333V296.96C51.2 361.813 34.133 433.493 34.133 512s17.067 150.187 51.2 215.04v174.08H235.52c78.507 54.613 174.08 88.747 276.48 88.747s197.973-34.134 276.48-88.747h163.84V699.733zM365.227 897.707c-3.414 0-6.827-3.414-10.24-3.414-6.827-3.413-17.067-6.826-23.894-10.24-3.413 0-6.826-3.413-10.24-3.413-10.24-6.827-20.48-10.24-30.72-17.067 0-6.826-3.413-10.24-6.826-10.24-6.827-3.413-13.654-10.24-20.48-17.066-3.414-3.414-6.827-6.827-10.24-6.827-6.827-6.827-13.654-10.24-17.067-17.067l-6.827-6.826-23.893-23.894v-3.413c-6.827-10.24-13.653-17.067-20.48-27.307-3.413-3.413-3.413-6.826-6.827-10.24-3.413-6.826-10.24-13.653-13.653-20.48-3.413-3.413-3.413-6.826-6.827-10.24-3.413-6.826-6.826-17.066-10.24-23.893 0-3.413-3.413-6.827-3.413-6.827-3.413-10.24-10.24-23.893-13.653-34.133 0-3.413 0-6.827-3.414-6.827-3.413-10.24-3.413-17.066-6.826-27.306 0-3.414 0-6.827-3.414-13.654 0-10.24-3.413-17.066-3.413-27.306v-10.24c0-13.654-3.413-23.894-3.413-37.547 0-13.653 0-23.893 3.413-37.547v-10.24c0-10.24 3.413-17.066 3.413-27.306 0-3.414 0-6.827 3.414-13.654 3.413-10.24 3.413-17.066 6.826-27.306 0-3.414 0-6.827 3.414-6.827 3.413-10.24 6.826-23.893 13.653-34.133 0-3.414 3.413-6.827 3.413-6.827 3.414-6.827 6.827-17.067 10.24-23.893 3.414-3.414 3.414-6.827 6.827-10.24 3.413-13.654 6.827-20.48 13.653-27.307 3.414-3.413 3.414-6.827 6.827-10.24 3.413-10.24 10.24-17.067 20.48-27.307V256c6.827-10.24 13.653-17.067 23.893-23.893l6.827-6.827 17.067-17.067c3.413-3.413 6.826-6.826 10.24-6.826 6.826-6.827 13.653-10.24 20.48-17.067l6.826-6.827c10.24-6.826 20.48-13.653 30.72-17.066 3.414 0 6.827-3.414 10.24-3.414 6.827-3.413 17.067-6.826 23.894-10.24 3.413-3.413 6.826-3.413 10.24-3.413 47.786-20.48 98.986-30.72 153.6-30.72s105.813 10.24 153.6 30.72c3.413 0 6.826 3.413 10.24 3.413 6.826 3.414 17.066 6.827 23.893 10.24 3.413 0 6.827 3.414 10.24 3.414 10.24 6.826 20.48 10.24 30.72 17.066 0 3.414 3.413 6.827 3.413 6.827 6.827 3.413 13.654 10.24 20.48 17.067 3.414 3.413 6.827 6.826 10.24 6.826 6.827 6.827 13.654 10.24 17.067 17.067l6.827 6.827L829.44 256c6.827 10.24 13.653 17.067 20.48 27.307 3.413 3.413 3.413 6.826 6.827 10.24 3.413 6.826 10.24 13.653 13.653 20.48 3.413 3.413 3.413 6.826 6.827 10.24 3.413 6.826 6.826 17.066 10.24 23.893 0 3.413 3.413 6.827 3.413 6.827 3.413 10.24 10.24 23.893 13.653 34.133 0 3.413 0 6.827 3.414 6.827 3.413 10.24 3.413 17.066 6.826 27.306 0 3.414 0 6.827 3.414 13.654 0 10.24 3.413 17.066 3.413 27.306v10.24c0 13.654 3.413 23.894 3.413 37.547 0 13.653 0 23.893-3.413 37.547v10.24c0 10.24-3.413 17.066-3.413 27.306 0 3.414 0 6.827-3.414 13.654-3.413 10.24-3.413 17.066-6.826 27.306 0 3.414 0 6.827-3.414 6.827-3.413 10.24-6.826 23.893-13.653 34.133 0 3.414-3.413 6.827-3.413 6.827-3.414 6.827-6.827 17.067-10.24 23.893-3.414 3.414-3.414 6.827-6.827 10.24-3.413 6.827-6.827 13.654-13.653 20.48-3.414 3.414-3.414 6.827-6.827 10.24-6.827 10.24-13.653 20.48-20.48 27.307-6.827 10.24-13.653 17.067-23.893 23.893l-6.827 6.827-17.067 17.067c-3.413 3.413-6.826 6.826-10.24 6.826-6.826 6.827-13.653 10.24-20.48 17.067-3.413 3.413-6.826 3.413-6.826 6.827-10.24 6.826-20.48 13.653-30.72 17.066-3.414 0-6.827 3.414-10.24 3.414-6.827 3.413-17.067 6.826-23.894 10.24-3.413 3.413-6.826 3.413-10.24 3.413-47.786 20.48-98.986 30.72-153.6 30.72s-102.4 3.413-150.186-13.653z" p-id="7112" fill="#1890FF"></path><path d="M696.32 785.067c-30.72-71.68 23.893-290.134 23.893-307.2 30.72-143.36 64.854-187.734 64.854-187.734V276.48h-153.6v13.653h13.653l-51.2 307.2-88.747-317.44-64.853 317.44h-13.653l-51.2-307.2h13.653V276.48H238.933c34.134 37.547 95.574 341.333 102.4 358.4 40.96 119.467 13.654 139.947 13.654 139.947v10.24h139.946l23.894-177.494 23.893 177.494h153.6z" p-id="7113" fill="#1890FF"></path></svg>